<?xml version="1.0" encoding="iso-8859-1"?>
<!-- Generator: Adobe Illustrator 19.0.0, SVG Export Plug-In . SVG Version: 6.00 Build 0)  -->
<svg version="1.1" id="Layer_1" xmlns="http://www.w3.org/2000/svg" xmlns:xlink="http://www.w3.org/1999/xlink" x="0px" y="0px"
	 viewBox="0 0 512 512" style="enable-background:new 0 0 512 512;" xml:space="preserve">
<g>
	<g>
		<g>
			<path d="M73.387,341.333l-50.688-0.064c3.819-14.379,15.147-25.92,30.123-29.675l42.048-10.517
				c3.819-0.96,6.827-3.947,7.765-7.765l4.992-20.011c0.939-3.755-0.235-7.723-3.051-10.368
				c-9.344-8.747-15.509-21.547-16.512-34.261c-0.448-5.547-6.272-9.408-11.84-9.408l-1.941-19.883c3.072,0,5.973-1.301,8-3.605
				c2.027-2.283,2.965-5.333,2.581-8.384c-0.917-7.147-2.347-20.011-2.347-24.171c0-12.139,0-24.704,35.349-25.045
				c2.176-0.021,4.331-0.704,6.101-1.984c5.995-4.288,12.821-6.741,21.483-7.659c5.867-0.619,10.091-5.888,9.472-11.733
				c-0.597-5.845-5.803-10.112-11.712-9.472c-11.008,1.173-20.459,4.331-28.779,9.6c-47.659,1.557-53.248,27.051-53.248,46.293
				c0,3.947,0.725,11.584,1.408,17.728c-1.856,1.088-3.541,2.496-5.035,4.16c-3.947,4.48-5.803,10.475-5.056,16.405l2.56,20.416
				c0.939,7.445,5.76,13.589,12.864,16.491c2.581,12.992,8.811,25.579,17.579,35.499l-2.005,8.064l-35.84,8.96
				C19.605,297.963,0,323.072,0,352c0,5.888,4.779,10.667,10.667,10.667h62.72c5.888,0,10.667-4.779,10.667-10.667
				C84.053,346.112,79.275,341.333,73.387,341.333z"/>
			<path d="M464.341,290.965l-35.84-8.96l-1.771-7.083c9.344-10.155,15.936-23.211,18.56-36.779
				c6.187-2.987,10.731-8.981,11.627-16.192l2.56-20.395c0.747-5.888-1.067-11.819-4.949-16.277
				c-1.344-1.536-2.88-2.859-4.587-3.925l0.661-13.461l2.411-2.411c5.824-6.208,13.717-19.477,1.152-38.677
				c-5.995-9.173-18.411-20.117-43.307-20.117c-10.112,0-19.029,1.365-27.264,4.203c-5.568,1.899-8.533,7.979-6.613,13.547
				c1.899,5.547,7.936,8.512,13.547,6.613c5.973-2.048,12.587-3.051,20.309-3.051c12.523,0,20.843,3.413,25.451,10.475
				c5.248,8,2.88,10.517,1.387,12.117l-5.099,5.099c-1.877,1.877-2.987,4.373-3.115,7.019l-1.237,25.536
				c-0.128,2.901,0.683,5.44,2.667,7.552c2.005,2.133,4.523,3.072,7.424,3.093l-2.603,20.011c-5.568,0-10.197,4.288-10.645,9.835
				c-1.003,12.907-7.637,26.304-17.28,34.944c-2.944,2.624-4.181,6.677-3.221,10.517l4.8,19.157c0.96,3.819,3.947,6.827,7.765,7.765
				l42.048,10.517c14.997,3.755,26.325,15.296,30.123,29.696h-50.667v21.333h62.699c5.888,0,10.667-4.779,10.667-10.667
				C512,323.072,492.395,297.984,464.341,290.965z"/>
			<path d="M364.629,336.512l-51.136-12.779l-3.499-13.973c13.483-13.973,22.848-32.555,26.133-51.733
				c8.171-3.2,14.315-10.688,15.445-19.84l3.477-27.819c0.875-6.933-1.259-13.909-5.845-19.179
				c-2.069-2.389-4.565-4.309-7.317-5.717l1.088-22.229l4.267-4.288c7.168-7.616,16.832-23.979,1.152-47.936
				c-11.157-17.045-29.931-25.685-55.787-25.685c-9.877,0-32.469,0-53.909,14.016c-61.867,1.643-69.888,32.448-69.888,59.285
				c0,5.824,1.237,17.771,2.219,26.389c-3.093,1.408-5.867,3.456-8.149,6.037c-4.651,5.291-6.827,12.309-5.952,19.307l3.477,27.819
				c1.216,9.771,8.128,17.643,17.152,20.437c3.285,18.325,12.139,36.203,24.768,49.856l-3.819,15.253l-51.136,12.779
				c-36.523,9.131-62.037,41.813-62.037,79.488c0,2.837,1.109,5.568,3.115,7.552s4.715,3.115,7.552,3.115l320-0.021
				c5.888,0,10.667-4.779,10.667-10.667C426.667,378.304,401.173,345.643,364.629,336.512z M107.605,405.312
				c4.117-23.189,21.44-42.24,44.928-48.107l57.344-14.336c3.819-0.96,6.827-3.947,7.765-7.765l6.827-27.285
				c0.96-3.755-0.235-7.723-3.051-10.368c-13.397-12.565-22.272-30.997-23.723-49.28c-0.448-5.547-5.077-9.813-10.645-9.813h-2.261
				c-1.643,0-3.029-1.216-3.221-2.837l-3.456-27.819c-0.149-1.259,0.427-2.133,0.789-2.56c0.363-0.405,1.152-1.088,3.883-1.088
				c3.072,0,5.973-1.301,8-3.605c2.027-2.283,2.965-5.333,2.581-8.384c-0.896-7.061-3.2-26.837-3.2-33.451
				c0-16.704,0-37.504,52.032-38.016c2.176-0.021,4.331-0.704,6.101-1.984c16.661-11.925,35.349-11.925,44.309-11.925
				c18.475,0,30.891,5.248,37.952,16.043c8.832,13.483,3.84,18.795,1.387,21.397l-6.955,6.955c-1.877,1.877-2.987,4.395-3.115,7.04
				l-1.685,34.816c-0.128,2.901,0.917,5.717,2.901,7.829s4.736,3.328,7.637,3.349c1.28,0,2.069,0.704,2.432,1.109
				c0.427,0.491,0.917,1.323,0.768,2.496l-3.477,27.84c-0.213,1.621-1.6,2.837-3.904,2.837c-5.568,0-10.197,4.267-10.645,9.813
				c-1.493,18.56-11.008,37.803-24.853,50.219c-2.944,2.645-4.181,6.699-3.221,10.539l6.549,26.155
				c0.96,3.797,3.947,6.805,7.765,7.744l57.344,14.336c23.488,5.867,40.811,24.939,44.928,48.128L107.605,405.312z"/>
		</g>
	</g>
</g>
<g>
</g>
<g>
</g>
<g>
</g>
<g>
</g>
<g>
</g>
<g>
</g>
<g>
</g>
<g>
</g>
<g>
</g>
<g>
</g>
<g>
</g>
<g>
</g>
<g>
</g>
<g>
</g>
<g>
</g>
</svg>
